<?xml version="1.0" encoding="UTF-8" standalone="no"?>
<!-- Created with Inkscape (http://www.inkscape.org/) -->

<svg
   xmlns:dc="http://purl.org/dc/elements/1.1/"
   xmlns:cc="http://creativecommons.org/ns#"
   xmlns:rdf="http://www.w3.org/1999/02/22-rdf-syntax-ns#"
   xmlns:svg="http://www.w3.org/2000/svg"
   xmlns="http://www.w3.org/2000/svg"
   xmlns:xlink="http://www.w3.org/1999/xlink"
   xmlns:sodipodi="http://sodipodi.sourceforge.net/DTD/sodipodi-0.dtd"
   xmlns:inkscape="http://www.inkscape.org/namespaces/inkscape"
   version="1.0"
   width="128"
   height="128"
   id="svg2408"
   style="display:inline"
   inkscape:version="0.48.2 r9819"
   sodipodi:docname="questions.svg"
   inkscape:export-filename="/other/desafio_alpha/proto/media/icons/menu/questions.png"
   inkscape:export-xdpi="90"
   inkscape:export-ydpi="90">
  <sodipodi:namedview
     pagecolor="#ffffff"
     bordercolor="#666666"
     borderopacity="1"
     objecttolerance="10"
     gridtolerance="10"
     guidetolerance="10"
     inkscape:pageopacity="0"
     inkscape:pageshadow="2"
     inkscape:window-width="1366"
     inkscape:window-height="727"
     id="namedview81"
     showgrid="false"
     inkscape:zoom="2.4583333"
     inkscape:cx="-4.3936907"
     inkscape:cy="58.524763"
     inkscape:window-x="0"
     inkscape:window-y="21"
     inkscape:window-maximized="1"
     inkscape:current-layer="svg2408" />
  <defs
     id="defs2410">
    <linearGradient
       id="linearGradient3857">
      <stop
         style="stop-color:#00af00;stop-opacity:1;"
         offset="0"
         id="stop3859" />
      <stop
         style="stop-color:#00af00;stop-opacity:0.7764706;"
         offset="1"
         id="stop3861" />
    </linearGradient>
    <linearGradient
       id="linearGradient4161">
      <stop
         id="stop4163"
         style="stop-color:#737373;stop-opacity:1"
         offset="0" />
      <stop
         id="stop4165"
         style="stop-color:#989898;stop-opacity:1"
         offset="1" />
    </linearGradient>
    <linearGradient
       x1="45.447727"
       y1="92.539597"
       x2="45.447727"
       y2="7.0165396"
       id="ButtonShadow"
       gradientUnits="userSpaceOnUse"
       gradientTransform="scale(1.0058652,0.994169)">
      <stop
         id="stop3750"
         style="stop-color:#000000;stop-opacity:1"
         offset="0" />
      <stop
         id="stop3752"
         style="stop-color:#000000;stop-opacity:0.58823532"
         offset="1" />
    </linearGradient>
    <linearGradient
       id="linearGradient3700">
      <stop
         id="stop3702"
         style="stop-color:#b5b5b5;stop-opacity:1"
         offset="0" />
      <stop
         id="stop3704"
         style="stop-color:#dedede;stop-opacity:1"
         offset="1" />
    </linearGradient>
    <filter
       color-interpolation-filters="sRGB"
       id="filter3174">
      <feGaussianBlur
         id="feGaussianBlur3176"
         stdDeviation="1.71" />
    </filter>
    <linearGradient
       x1="45.447727"
       y1="92.539597"
       x2="45.447727"
       y2="7.0165396"
       id="ButtonShadow-0"
       gradientUnits="userSpaceOnUse"
       gradientTransform="matrix(1.0058652,0,0,0.994169,100,0)">
      <stop
         id="stop3750-8"
         style="stop-color:#000000;stop-opacity:1"
         offset="0" />
      <stop
         id="stop3752-5"
         style="stop-color:#000000;stop-opacity:0.58823532"
         offset="1" />
    </linearGradient>
    <linearGradient
       x1="32.251034"
       y1="6.1317081"
       x2="32.251034"
       y2="90.238609"
       id="linearGradient3780"
       xlink:href="#ButtonShadow-0"
       gradientUnits="userSpaceOnUse"
       gradientTransform="matrix(1.0238095,0,0,1.0119048,-1.1428571,-98.071429)" />
    <linearGradient
       x1="32.251034"
       y1="6.1317081"
       x2="32.251034"
       y2="90.238609"
       id="linearGradient3772"
       xlink:href="#ButtonShadow-0"
       gradientUnits="userSpaceOnUse"
       gradientTransform="matrix(1.0238095,0,0,1.0119048,-1.1428571,-98.071429)" />
    <linearGradient
       x1="32.251034"
       y1="6.1317081"
       x2="32.251034"
       y2="90.238609"
       id="linearGradient3725"
       xlink:href="#ButtonShadow-0"
       gradientUnits="userSpaceOnUse"
       gradientTransform="matrix(1.0238095,0,0,1.0119048,-1.1428571,-98.071429)" />
    <linearGradient
       x1="32.251034"
       y1="6.1317081"
       x2="32.251034"
       y2="90.238609"
       id="linearGradient3721"
       xlink:href="#ButtonShadow-0"
       gradientUnits="userSpaceOnUse"
       gradientTransform="translate(0,-97)" />
    <linearGradient
       x1="32.251034"
       y1="6.1317081"
       x2="32.251034"
       y2="90.238609"
       id="linearGradient3760"
       xlink:href="#ButtonShadow-0"
       gradientUnits="userSpaceOnUse"
       gradientTransform="matrix(1.0238095,0,0,1.0119048,-1.1428571,-98.071429)" />
    <linearGradient
       id="linearGradient3325">
      <stop
         id="stop3327"
         style="stop-color:#f06805;stop-opacity:1"
         offset="0" />
      <stop
         id="stop3329"
         style="stop-color:#ffb03c;stop-opacity:1"
         offset="1" />
    </linearGradient>
    <linearGradient
       x1="84.25"
       y1="128.9995"
       x2="84.25"
       y2="216.5005"
       id="color_3_"
       gradientUnits="userSpaceOnUse">
      <stop
         id="stop48"
         style="stop-color:#d8d8d8;stop-opacity:1"
         offset="0" />
      <stop
         id="stop50"
         style="stop-color:#f9f9f9;stop-opacity:1"
         offset="1" />
    </linearGradient>
    <linearGradient
       x1="36.357143"
       y1="6"
       x2="36.357143"
       y2="63.893143"
       id="linearGradient3923-0"
       xlink:href="#linearGradient3737-1-9"
       gradientUnits="userSpaceOnUse" />
    <linearGradient
       id="linearGradient3737-1-9">
      <stop
         id="stop3739-9-7"
         style="stop-color:#ffffff;stop-opacity:1"
         offset="0" />
      <stop
         id="stop3741-3-7"
         style="stop-color:#ffffff;stop-opacity:0"
         offset="1" />
    </linearGradient>
    <radialGradient
       cx="48"
       cy="90.171875"
       r="42"
       fx="48"
       fy="90.171875"
       id="radialGradient2886-8"
       xlink:href="#linearGradient3737-0-2"
       gradientUnits="userSpaceOnUse"
       gradientTransform="matrix(1.1573129,0,0,0.99590774,-7.551021,0.1971319)" />
    <linearGradient
       id="linearGradient3737-0-2">
      <stop
         id="stop3739-6-6"
         style="stop-color:#ffffff;stop-opacity:1"
         offset="0" />
      <stop
         id="stop3741-0-7"
         style="stop-color:#ffffff;stop-opacity:0"
         offset="1" />
    </linearGradient>
    <linearGradient
       id="linearGradient3737-9-3">
      <stop
         id="stop3739-2-0"
         style="stop-color:#ffffff;stop-opacity:1"
         offset="0" />
      <stop
         id="stop3741-1-9"
         style="stop-color:#ffffff;stop-opacity:0"
         offset="1" />
    </linearGradient>
    <clipPath
       id="clipPath3613-0">
      <rect
         width="84"
         height="84"
         rx="6"
         ry="6"
         x="6"
         y="6"
         id="rect3615-6"
         style="fill:#ffffff;fill-opacity:1;fill-rule:nonzero;stroke:none" />
    </clipPath>
    <filter
       x="-0.192"
       y="-0.192"
       width="1.3839999"
       height="1.3839999"
       color-interpolation-filters="sRGB"
       id="filter3794">
      <feGaussianBlur
         id="feGaussianBlur3796"
         stdDeviation="5.28" />
    </filter>
    <linearGradient
       x1="48"
       y1="20.220806"
       x2="48"
       y2="138.66119"
       id="linearGradient3121"
       xlink:href="#linearGradient3737-9-3"
       gradientUnits="userSpaceOnUse" />
    <linearGradient
       x1="64"
       y1="64"
       x2="64"
       y2="8"
       id="linearGradient4143"
       xlink:href="#color_3_"
       gradientUnits="userSpaceOnUse" />
    <linearGradient
       x1="24"
       y1="88"
       x2="24"
       y2="48"
       id="linearGradient4159"
       xlink:href="#linearGradient3700"
       gradientUnits="userSpaceOnUse" />
    <linearGradient
       x1="72"
       y1="88"
       x2="72"
       y2="48"
       id="linearGradient3999"
       xlink:href="#linearGradient4161"
       gradientUnits="userSpaceOnUse" />
    <linearGradient
       x1="24"
       y1="64"
       x2="24"
       y2="8"
       id="linearGradient4007"
       xlink:href="#linearGradient3325"
       gradientUnits="userSpaceOnUse" />
    <radialGradient
       inkscape:collect="always"
       xlink:href="#linearGradient3737-0-2"
       id="radialGradient3071"
       gradientUnits="userSpaceOnUse"
       gradientTransform="matrix(1.5945818,0,0,1.3721928,-12.718409,-3.6341561)"
       cx="48"
       cy="90.171875"
       fx="48"
       fy="90.171875"
       r="42" />
    <linearGradient
       inkscape:collect="always"
       xlink:href="#linearGradient3737-1-9"
       id="linearGradient3074"
       gradientUnits="userSpaceOnUse"
       x1="36.357143"
       y1="6"
       x2="36.357143"
       y2="63.893143"
       gradientTransform="matrix(1.3778312,0,0,1.3778312,-2.3143765,-3.9057707)" />
    <linearGradient
       inkscape:collect="always"
       xlink:href="#linearGradient3325"
       id="linearGradient3077"
       gradientUnits="userSpaceOnUse"
       x1="24"
       y1="64"
       x2="24"
       y2="8"
       gradientTransform="matrix(1.3778312,0,0,1.3778312,-2.3143765,-3.9057707)" />
    <linearGradient
       inkscape:collect="always"
       xlink:href="#linearGradient3857"
       id="linearGradient3863"
       x1="49.40625"
       y1="65.890625"
       x2="90"
       y2="65.890625"
       gradientUnits="userSpaceOnUse"
       gradientTransform="matrix(1.3778312,0,0,1.3778312,-2.3143765,-47.996369)" />
  </defs>
  <metadata
     id="metadata2413">
    <rdf:RDF>
      <cc:Work
         rdf:about="">
        <dc:format>image/svg+xml</dc:format>
        <dc:type
           rdf:resource="http://purl.org/dc/dcmitype/StillImage" />
        <dc:title></dc:title>
      </cc:Work>
    </rdf:RDF>
  </metadata>
  <g
     id="layer2"
     style="display:none"
     transform="translate(0,32)">
    <rect
       width="86"
       height="85"
       rx="6"
       ry="6"
       x="5"
       y="7"
       id="rect3745"
       style="opacity:0.9;fill:url(#ButtonShadow);fill-opacity:1;fill-rule:nonzero;stroke:none;filter:url(#filter3174)" />
  </g>
  <g
     id="layer6"
     style="display:inline"
     transform="matrix(1.3778312,0,0,1.3778312,-2.3143765,-3.9057707)">
    <path
       d="m 12,-95.03125 c -5.5110903,0 -10.03125,4.52016 -10.03125,10.03125 l 0,71 c 0,5.5110902 4.5201598,10.03125 10.03125,10.03125 l 72,0 c 5.51109,0 10.03125,-4.5201597 10.03125,-10.03125 l 0,-71 c 0,-5.51109 -4.52016,-10.03125 -10.03125,-10.03125 l -72,0 z"
       transform="scale(1,-1)"
       id="path3786"
       style="opacity:0.07999998;fill:url(#linearGradient3760);fill-opacity:1;fill-rule:nonzero;stroke:none;display:inline"
       inkscape:connector-curvature="0" />
    <path
       d="m 12,-94.03125 c -4.971633,0 -9.03125,4.059617 -9.03125,9.03125 l 0,71 c 0,4.9716329 4.0596171,9.03125 9.03125,9.03125 l 72,0 c 4.971633,0 9.03125,-4.059617 9.03125,-9.03125 l 0,-71 c 0,-4.971633 -4.059617,-9.03125 -9.03125,-9.03125 l -72,0 z"
       transform="scale(1,-1)"
       id="path3778"
       style="opacity:0.1;fill:url(#linearGradient3780);fill-opacity:1;fill-rule:nonzero;stroke:none;display:inline"
       inkscape:connector-curvature="0" />
    <path
       d="m 12,-93 c -4.4091333,0 -8,3.590867 -8,8 l 0,71 c 0,4.4091333 3.5908667,8 8,8 l 72,0 c 4.409133,0 8,-3.5908667 8,-8 l 0,-71 c 0,-4.409133 -3.590867,-8 -8,-8 l -72,0 z"
       transform="scale(1,-1)"
       id="path3770"
       style="opacity:0.2;fill:url(#linearGradient3772);fill-opacity:1;fill-rule:nonzero;stroke:none;display:inline"
       inkscape:connector-curvature="0" />
    <rect
       width="86"
       height="85"
       rx="7"
       ry="7"
       x="5"
       y="-92"
       transform="scale(1,-1)"
       id="rect3723"
       style="opacity:0.3;fill:url(#linearGradient3725);fill-opacity:1;fill-rule:nonzero;stroke:none;display:inline" />
    <rect
       width="84"
       height="84"
       rx="6"
       ry="6"
       x="6"
       y="-91"
       transform="scale(1,-1)"
       id="rect3716"
       style="opacity:0.45;fill:url(#linearGradient3721);fill-opacity:1;fill-rule:nonzero;stroke:none;display:inline" />
  </g>
  <rect
     style="fill:#323232;fill-opacity:1;fill-rule:nonzero;stroke:none;display:inline"
     id="rect2419"
     y="4.3612165"
     x="5.9526105"
     ry="8.2669868"
     rx="8.2669868"
     height="115.73782"
     width="115.73782" />
  <path
     style="color:#000000;fill:#a40000;fill-opacity:1;fill-rule:nonzero;stroke:none;stroke-width:2;marker:none;visibility:visible;display:inline;overflow:visible;enable-background:accumulate"
     id="path4111"
     inkscape:connector-curvature="0"
     d="m 65.931321,64.339931 0,5.898839 0,4.391837 0,13.132454 c -0.005,0.27326 -0.18022,0.536224 -0.43057,0.645858 -1.52154,0.76077 -3.913454,0.593409 -7.27667,-1.894518 -0.494659,-0.261097 -1.175357,-0.663837 -1.894517,-0.990316 -0.719161,-0.326478 -1.468796,-0.552535 -1.894518,-0.559744 -1.772893,0 -3.409142,1.033633 -4.650181,2.841777 -1.241038,1.808145 -2.023689,4.355972 -2.023689,7.190557 0,2.834587 0.783477,5.393585 2.023689,7.190555 1.219903,1.76754 2.822281,2.76569 4.564066,2.79872 0.029,5.5e-4 0.05704,0 0.08612,0 1.307911,-0.17374 3.23999,-1.10761 3.702921,-1.46394 3.42345,-2.56759 5.836874,-2.70054 7.362784,-1.93758 0.25035,0.10968 0.42566,0.37259 0.43057,0.64586 l 0,17.86875 47.492124,0 c 4.57991,0 8.26699,-3.68708 8.26699,-8.26699 l 0,-47.492119 -24.499564,0 c -0.32005,1.01266 -0.21218,2.659339 1.89452,5.468267 0.64837,0.842328 1.651944,2.706504 1.851464,4.477952 0.002,0.02867 0.002,0.05744 0,0.08611 0,2.336267 -1.397494,4.421189 -3.487644,5.855783 -2.09014,1.434593 -4.90778,2.282033 -8.00864,2.282033 -3.10086,0 -5.92884,-0.846614 -8.00865,-2.282033 -2.0798,-1.435419 -3.44457,-3.522028 -3.44457,-5.855783 0.0142,-0.835422 0.37173,-1.703782 0.73197,-2.497319 0.36024,-0.793537 0.7473,-1.520236 0.99032,-1.980632 0.0262,-0.03107 0.055,-0.05991 0.0861,-0.08611 2.1067,-2.808928 2.21457,-4.455607 1.89452,-5.468267 l -6.8461,0 -4.39184,0 z" />
  <path
     style="color:#000000;fill:url(#linearGradient3863);fill-opacity:1;fill-rule:nonzero;stroke:none;stroke-width:2;marker:none;visibility:visible;display:inline;overflow:visible;enable-background:accumulate"
     id="path4113"
     inkscape:connector-curvature="0"
     d="m 65.759091,4.3612164 0,21.8300126 c 1.05204,0.389185 2.78094,0.314744 5.72662,-1.894517 0.80678,-0.621011 2.71113,-1.571194 4.43489,-1.765347 0.0143,-5.37e-4 0.0287,-5.37e-4 0.0431,0 2.27992,0 4.31137,1.339575 5.72661,3.401521 1.41524,2.061946 2.23897,4.848296 2.23897,7.922529 0,3.074234 -0.82307,5.871014 -2.23897,7.92253 -1.4159,2.051516 -3.44869,3.358463 -5.72661,3.358463 -0.79446,-0.0135 -1.62511,-0.332049 -2.41121,-0.688915 -0.7861,-0.356867 -1.51681,-0.745498 -1.98063,-0.990316 -0.0298,-0.01185 -0.0587,-0.02633 -0.0861,-0.04306 -2.94568,-2.209261 -4.67458,-2.283702 -5.72662,-1.894518 l 0,9.687876 0,4.391837 0,7.4489 4.69324,0 4.39184,0 7.40584,0 c 0.20964,-0.0039 0.41689,0.116992 0.51669,0.3014 0.73277,1.465539 0.59071,3.796937 -1.89452,7.1475 -0.0114,0.02173 -0.0311,0.06356 -0.0431,0.08611 -0.25891,0.487081 -0.632,1.157009 -0.94726,1.851461 -0.32985,0.726599 -0.59489,1.470883 -0.6028,1.937575 0,1.829232 1.09155,3.518959 2.92789,4.779352 1.83635,1.260393 4.41546,2.066747 7.27668,2.066747 2.86121,0 5.45142,-0.807014 7.27667,-2.066747 1.8109,-1.249831 2.8683,-2.921832 2.88483,-4.736295 -10e-4,-0.01185 0.002,-0.03108 0,-0.04306 -0.16526,-1.351812 -1.16088,-3.283442 -1.55006,-3.789036 -2.55009,-3.400119 -2.62889,-5.764874 -1.89452,-7.233614 0.0998,-0.184404 0.30705,-0.305297 0.51669,-0.3014 l 24.973189,0 0,-50.42001 c 0,-4.579911 -3.68708,-8.2669876 -8.26699,-8.2669876 z" />
  <path
     style="color:#000000;fill:#005795;fill-opacity:1;fill-rule:nonzero;stroke:none;stroke-width:2;marker:none;visibility:visible;display:inline;overflow:visible;enable-background:accumulate"
     id="path4109"
     inkscape:connector-curvature="0"
     d="m 5.9526105,64.339931 0,47.492119 c 0,4.57991 3.687077,8.26699 8.2669875,8.26699 l 50.247783,0 0,-17.30901 c -1.01266,-0.32005 -2.659342,-0.21217 -5.46827,1.89452 -0.857781,0.66027 -2.719716,1.61037 -4.477951,1.8084 -0.02867,0.001 -0.05744,0.001 -0.08611,0 -2.333756,0 -4.420364,-1.36478 -5.855783,-3.44457 -1.435419,-2.0798 -2.282033,-4.907788 -2.282033,-8.008648 0,-3.100864 0.847439,-5.918497 2.282033,-8.008644 1.434594,-2.090146 3.519516,-3.487635 5.855783,-3.487635 0.835421,0.01415 1.70378,0.37173 2.497319,0.731973 0.793538,0.360242 1.520239,0.747301 1.980632,0.990316 0.03107,0.02621 0.05991,0.05504 0.08611,0.08611 2.811742,2.108807 4.46208,2.2471 5.46827,1.937575 l 0,-12.658824 0,-4.391837 0,-5.898839 -5.898842,0 -4.391837,0 -20.366067,0 c -0.320051,1.01266 -0.212178,2.659339 1.894518,5.468267 0.648376,0.842328 1.651944,2.706504 1.851461,4.477952 0.0017,0.02867 0.0017,0.05744 0,0.08611 0,2.336264 -1.397489,4.421189 -3.487636,5.855783 -2.090146,1.434593 -4.907782,2.282033 -8.008644,2.282033 -3.100861,0 -5.928843,-0.846613 -8.008643,-2.282033 -2.079801,-1.435421 -3.444578,-3.52203 -3.444578,-5.855783 0.01415,-0.835425 0.37173,-1.703782 0.731973,-2.497319 0.360242,-0.793537 0.747302,-1.520238 0.990316,-1.980632 0.02621,-0.03107 0.05504,-0.05991 0.08611,-0.08611 2.106696,-2.808928 2.214569,-4.455607 1.894518,-5.468267 z" />
  <path
     style="color:#000000;fill:url(#linearGradient3077);fill-opacity:1;fill-rule:nonzero;stroke:none;stroke-width:2;marker:none;visibility:visible;display:inline;overflow:visible;enable-background:accumulate"
     id="path4115"
     inkscape:connector-curvature="0"
     d="m 14.219598,4.3612164 c -4.5799105,0 -8.2669875,3.6870766 -8.2669875,8.2669876 l 0,50.42001 12.9171675,0 c 0.209642,-0.0039 0.416886,0.116992 0.516687,0.3014 0.732769,1.465539 0.590709,3.796937 -1.894518,7.1475 -0.01144,0.02173 -0.03107,0.06356 -0.04306,0.08611 -0.258911,0.487081 -0.632001,1.157009 -0.947259,1.851461 -0.329853,0.726599 -0.594897,1.470883 -0.602802,1.937575 0,1.829232 1.091547,3.518959 2.927892,4.779352 1.836344,1.260393 4.415455,2.066747 7.276671,2.066747 2.861215,0 5.451426,-0.807014 7.276671,-2.066747 1.810898,-1.249831 2.868303,-2.921832 2.884834,-4.736295 -0.0013,-0.01185 0.0015,-0.03108 0,-0.04306 -0.165259,-1.351812 -1.160884,-3.283442 -1.55006,-3.789036 -2.55009,-3.400119 -2.628887,-5.764874 -1.894518,-7.233614 0.0998,-0.184404 0.307044,-0.305297 0.516686,-0.3014 l 19.461866,0 5.769668,0 6.071072,0 0,-7.4489 0,-4.391837 0,-10.075391 c -0.004,-0.209642 0.11699,-0.416886 0.3014,-0.516686 1.45609,-0.728046 3.79433,-0.634793 7.1475,1.85146 0.0291,0.02159 0.0568,0.0211 0.0861,0.04306 0.49236,0.262561 1.15645,0.664908 1.85146,0.990316 0.72687,0.340324 1.47743,0.595009 1.93758,0.602801 1.82923,0 3.51896,-1.091547 4.77935,-2.927891 1.26039,-1.836345 2.06675,-4.415456 2.06675,-7.276671 0,-2.861216 -0.80702,-5.451425 -2.06675,-7.276671 -1.24983,-1.810899 -2.92184,-2.868303 -4.7363,-2.884834 -0.0144,-1.31e-4 -0.0286,0 -0.0431,0 -1.35182,0.165262 -3.28345,1.160886 -3.78904,1.55006 -3.40012,2.55009 -5.76487,2.628886 -7.23361,1.894518 -0.18441,-0.0998 -0.3053,-0.307045 -0.3014,-0.516687 l 0,-22.3036426 z" />
  <path
     style="opacity:0.4;fill:url(#linearGradient3074);fill-opacity:1;fill-rule:nonzero;stroke:none;display:inline"
     id="rect3728-1"
     inkscape:connector-curvature="0"
     d="m 14.219598,4.3612164 c -4.5799105,0 -8.2669875,3.6870766 -8.2669875,8.2669876 l 0,2.755662 0,93.692524 0,2.75566 c 0,0.46119 0.05691,0.89655 0.129103,1.33477 0.0671,0.40729 0.13365,0.82244 0.258344,1.20561 0.01378,0.0419 0.0288,0.0876 0.04299,0.1291 0.136267,0.3965 0.323625,0.75429 0.516687,1.11949 0.19922,0.37685 0.434871,0.73799 0.688915,1.07643 0.254045,0.33843 0.515006,0.65236 0.818088,0.94726 0.606176,0.58979 1.29917,1.12228 2.0667465,1.507 0.383781,0.19236 0.790145,0.34025 1.205603,0.47363 -0.353001,-0.13809 -0.670605,-0.32554 -0.990317,-0.51669 -0.0096,-0.006 -0.03293,0.006 -0.04299,0 -0.04395,-0.0266 -0.08584,-0.0586 -0.129103,-0.0861 -0.165891,-0.10568 -0.318306,-0.22529 -0.473629,-0.34446 -0.1462845,-0.11133 -0.2938645,-0.22198 -0.4305725,-0.34446 -0.245158,-0.22242 -0.478742,-0.47589 -0.688916,-0.73197 -0.148227,-0.17948 -0.300905,-0.36553 -0.430572,-0.55975 -0.03458,-0.0529 -0.05291,-0.11835 -0.08611,-0.17222 -0.08928,-0.14196 -0.179435,-0.2818 -0.258343,-0.43058 -0.139175,-0.26827 -0.283379,-0.57276 -0.387515,-0.86114 -0.01102,-0.03 -0.03252,-0.0558 -0.04299,-0.0861 -0.04382,-0.12662 -0.04933,-0.25735 -0.08611,-0.38744 -0.04175,-0.14691 -0.097,-0.27974 -0.129103,-0.43057 -0.100554,-0.47055 -0.172366,-0.96201 -0.172366,-1.46395 l 0,-2.75566 0,-93.692523 0,-2.755662 c 0,-3.832917 3.0562365,-6.8891562 6.8891555,-6.8891562 l 2.755662,0 93.692522,0 2.75566,0 c 3.83292,0 6.88916,3.0562392 6.88916,6.8891562 l 0,2.755662 0,93.692523 0,2.75566 c 0,0.50194 -0.0718,0.9934 -0.17223,1.46395 -0.0609,0.28506 -0.1218,0.5479 -0.21529,0.81808 -0.011,0.0303 -0.0321,0.0561 -0.043,0.0861 -0.0864,0.23938 -0.19067,0.50628 -0.30141,0.73197 -0.0573,0.11409 -0.10884,0.23416 -0.17222,0.34446 -0.0752,0.13392 -0.17467,0.25951 -0.25835,0.38751 -0.12965,0.19422 -0.28234,0.38027 -0.43057,0.55975 -0.19726,0.24036 -0.41768,0.47811 -0.64586,0.68891 -0.0154,0.0141 -0.0275,0.0292 -0.043,0.043 -0.19067,0.173 -0.3928,0.32302 -0.6028,0.47363 -0.14132,0.10072 -0.28152,0.21131 -0.43057,0.3014 -0.01,0.006 -0.0328,-0.006 -0.043,0 -0.31971,0.19115 -0.63731,0.3786 -0.99031,0.51669 0.41545,-0.13338 0.8218,-0.28127 1.2056,-0.47363 0.76757,-0.38472 1.46057,-0.91721 2.06674,-1.507 0.30309,-0.2949 0.56405,-0.60883 0.81809,-0.94726 0.25405,-0.33844 0.4897,-0.69958 0.68892,-1.07643 0.19306,-0.3652 0.38046,-0.72299 0.51668,-1.11949 0.0143,-0.0424 0.0293,-0.0864 0.043,-0.1291 0.1247,-0.38317 0.19125,-0.79832 0.25835,-1.20561 0.0721,-0.43822 0.12903,-0.87358 0.12903,-1.33477 l 0,-2.75566 0,-93.692524 0,-2.755662 c 0,-4.579911 -3.68708,-8.2669876 -8.26699,-8.2669876 l -99.203844,0 z" />
  <path
     style="opacity:0.2;fill:url(#radialGradient3071);fill-opacity:1;fill-rule:nonzero;stroke:none;display:inline"
     id="path3615-0"
     inkscape:connector-curvature="0"
     d="m 14.219598,120.09904 c -4.5799105,0 -8.2669875,-3.68708 -8.2669875,-8.26699 l 0,-2.75566 0,-93.692524 0,-2.755662 c 0,-0.461189 0.05691,-0.896555 0.129103,-1.334774 0.0671,-0.407282 0.13365,-0.822448 0.258344,-1.205603 0.01378,-0.04186 0.0288,-0.08763 0.04299,-0.129171 0.136267,-0.3965 0.323625,-0.754297 0.516687,-1.119488 0.19922,-0.376847 0.434871,-0.737987 0.688915,-1.076431 0.254045,-0.3384434 0.515006,-0.6523643 0.818088,-0.9472588 0.606176,-0.5897889 1.29917,-1.1222793 2.0667465,-1.5070028 0.383781,-0.1923618 0.790145,-0.3402513 1.205603,-0.4736295 -0.353001,0.138089 -0.670605,0.3255429 -0.990317,0.5166867 -0.0096,0.00606 -0.03293,-0.0062 -0.04299,0 -0.04395,0.026592 -0.08584,0.058572 -0.129103,0.086114 C 10.350786,5.5433263 10.198371,5.66294 10.043048,5.7821044 9.8967635,5.8934332 9.7491835,6.0040896 9.6124755,6.1265622 9.3673175,6.3489897 9.1337335,6.6024486 8.9235595,6.8585351 8.7753325,7.0380045 8.6226545,7.224053 8.4929875,7.418279 c -0.03458,0.052881 -0.05291,0.1183144 -0.08611,0.172229 -0.08928,0.141961 -0.179435,0.28179 -0.258343,0.430572 -0.139175,0.268272 -0.283379,0.572766 -0.387515,0.861145 -0.01102,0.03005 -0.03252,0.05587 -0.04299,0.08611 -0.04382,0.126691 -0.04933,0.257421 -0.08611,0.387515 -0.04175,0.146901 -0.097,0.279742 -0.129103,0.430572 -0.100554,0.470546 -0.172366,0.962008 -0.172366,1.463945 l 0,2.755663 0,93.69253 0,2.75566 c 0,3.83292 3.0562365,6.88915 6.8891555,6.88915 l 2.755662,0 93.692522,0 2.75566,0 c 3.83292,0 6.88916,-3.05623 6.88916,-6.88915 l 0,-2.75566 0,-93.69253 0,-2.755663 c 0,-0.501937 -0.0718,-0.993399 -0.17223,-1.463945 -0.0609,-0.285064 -0.1218,-0.547906 -0.21529,-0.818087 -0.011,-0.03024 -0.0321,-0.05606 -0.043,-0.08611 -0.0864,-0.239383 -0.19067,-0.506283 -0.30141,-0.731973 -0.0573,-0.114085 -0.10884,-0.234168 -0.17222,-0.344458 -0.0752,-0.133939 -0.17467,-0.2595145 -0.25835,-0.387515 -0.12965,-0.194226 -0.28234,-0.3802745 -0.43057,-0.5597439 -0.19726,-0.2403627 -0.41768,-0.4781047 -0.64586,-0.6889156 -0.0154,-0.014054 -0.0275,-0.029141 -0.043,-0.043057 -0.19067,-0.1729949 -0.3928,-0.3230132 -0.6028,-0.4736294 -0.14132,-0.1007884 -0.28152,-0.2113097 -0.43057,-0.3014006 -0.01,-0.0062 -0.0328,0.00606 -0.043,0 C 116.6346,5.1603887 116.317,4.9729348 115.964,4.8348458 c 0.41545,0.1333741 0.8218,0.2812677 1.2056,0.4736295 0.76757,0.3847235 1.46057,0.9172139 2.06674,1.5070028 0.30309,0.2948945 0.56405,0.6088154 0.81809,0.9472589 0.25405,0.338444 0.4897,0.699584 0.68892,1.076431 0.19306,0.365191 0.38046,0.722988 0.51668,1.119488 0.0143,0.04241 0.0293,0.08645 0.043,0.129171 0.1247,0.383155 0.19125,0.798321 0.25835,1.205603 0.0721,0.438219 0.12903,0.873585 0.12903,1.334774 l 0,2.755662 0,93.692524 0,2.75566 c 0,4.57991 -3.68708,8.26699 -8.26699,8.26699 l -99.203844,0 z" />
  <rect
     style="fill:#ff00ff;fill-opacity:1;fill-rule:nonzero;stroke:none;display:inline"
     id="rect3654"
     y="4.3612165"
     x="-131.83051"
     ry="8.2669868"
     rx="8.2669868"
     height="115.73782"
     width="115.73782" />
  <rect
     style="color:#000000;fill:#ffffff;stroke:#000000;stroke-width:0.68891561;stroke-linecap:round;stroke-linejoin:miter;stroke-miterlimit:4;stroke-opacity:1;stroke-dasharray:none;stroke-dashoffset:8.6;marker:none;visibility:visible;display:inline;overflow:visible;enable-background:accumulate"
     id="rect3797"
     y="7.116879"
     x="152.00272"
     height="22.0453"
     width="22.0453" />
  <text
     sodipodi:linespacing="125%"
     style="font-size:5.51132488px;font-style:normal;font-variant:normal;font-weight:normal;font-stretch:normal;text-align:start;line-height:125%;writing-mode:lr-tb;text-anchor:start;fill:#000000;fill-opacity:1;stroke:none;display:inline;font-family:Liberation Sans;-inkscape-font-specification:Liberation Sans"
     xml:space="preserve"
     id="text3799"
     y="12.585845"
     x="178.72246"><tspan
       id="tspan3801"
       y="12.585845"
       x="178.72246">Width: 2px</tspan><tspan
       id="tspan3803"
       y="19.475002"
       x="178.72246">Blur: 12</tspan><tspan
       id="tspan3807"
       y="26.364157"
       x="178.72246">Opacity: 60</tspan></text>
  <path
     style="opacity:0.4;color:#000000;fill:#ffffff;fill-opacity:1;fill-rule:nonzero;stroke:none;stroke-width:2;marker:none;visibility:visible;display:inline;overflow:visible;enable-background:accumulate"
     id="path3927"
     inkscape:connector-curvature="0"
     d="m 75.963661,23.736968 c -1.35182,0.165262 -3.28345,1.160886 -3.78904,1.55006 -3.40012,2.55009 -5.76487,2.628886 -7.23361,1.894518 -0.18441,-0.0998 -0.3053,-0.307045 -0.3014,-0.516687 l 0,1.377831 c -0.004,0.209643 0.11699,0.41689 0.3014,0.516687 1.46874,0.734369 3.83349,0.655572 7.23361,-1.894518 0.50559,-0.389174 2.43722,-1.384798 3.78904,-1.55006 0.0144,0 0.0287,-1.31e-4 0.0431,0 1.81446,0.01653 3.48647,1.073935 4.7363,2.884834 1.15886,1.679095 1.90689,3.998481 2.02369,6.587755 0.0102,-0.225249 0.0431,-0.459812 0.0431,-0.688915 0,-2.861216 -0.80702,-5.451425 -2.06675,-7.276671 -1.24983,-1.810899 -2.92184,-2.868303 -4.7363,-2.884834 -0.0144,-1.31e-4 -0.0286,0 -0.0431,0 z M 19.687865,65.846933 c -0.185545,1.259056 -0.814308,2.787506 -2.195918,4.650181 -0.01144,0.02173 -0.03107,0.06356 -0.04306,0.08611 -0.258911,0.487081 -0.632001,1.157009 -0.947259,1.851461 -0.329853,0.726599 -0.594897,1.470883 -0.602802,1.937575 0,0.303607 0.02756,0.609606 0.08611,0.904202 0.09756,-0.433152 0.277226,-0.936463 0.516687,-1.463946 0.315258,-0.694452 0.688348,-1.364379 0.947259,-1.851461 0.01199,-0.02256 0.03162,-0.06439 0.04306,-0.08611 1.927643,-2.598834 2.402476,-4.583937 2.195918,-6.028012 z m 12.787996,0 c -0.2338,1.458918 0.246719,3.457784 2.238976,6.114126 0.350612,0.455494 1.179514,2.054826 1.463945,3.358464 0.05878,-0.292027 0.08337,-0.603046 0.08611,-0.904202 -0.0013,-0.01185 0.0015,-0.03108 0,-0.04306 -0.165259,-1.351812 -1.160884,-3.283442 -1.55006,-3.789036 -1.418641,-1.891523 -2.064493,-3.461628 -2.238971,-4.736292 z" />
  <path
     style="opacity:0.7;color:#000000;fill:#ffffff;fill-opacity:1;fill-rule:nonzero;stroke:none;stroke-width:2;marker:none;visibility:visible;display:inline;overflow:visible;enable-background:accumulate"
     id="path3946"
     inkscape:connector-curvature="0"
     d="m 5.9526105,64.339931 0,1.377831 12.3574235,0 c 0.02001,0.0633 0.02678,0.146912 0.04306,0.215286 0.119334,-0.661636 0.08773,-1.17929 -0.04306,-1.593117 l -12.3574235,0 z m 27.8580245,0 c -0.130784,0.413827 -0.162397,0.931481 -0.04306,1.593117 0.01627,-0.06837 0.02305,-0.151995 0.04306,-0.215286 l 20.366067,0 4.391837,0 5.898842,0 0,-1.377831 -5.898842,0 -4.391837,0 -20.366067,0 z M 14.65017,75.319523 c -0.0197,0.13995 -0.04071,0.291943 -0.04306,0.430572 0,2.333753 1.364777,4.420362 3.444578,5.855783 2.0798,1.43542 4.907782,2.282033 8.008643,2.282033 3.100862,0 5.918498,-0.84744 8.008644,-2.282033 2.090147,-1.434594 3.487636,-3.519518 3.487636,-5.855783 0.0017,-0.02867 0.0017,-0.05744 0,-0.08611 -0.01144,-0.101285 -0.06966,-0.199714 -0.08612,-0.301401 -0.333979,1.927798 -1.614607,3.639 -3.401521,4.865467 -2.090146,1.434593 -4.907782,2.282033 -8.008644,2.282033 -3.100861,0 -5.928843,-0.846613 -8.008643,-2.282033 -1.794233,-1.238329 -3.088766,-2.96033 -3.401521,-4.908524 z m 31.690117,20.409125 c -0.0092,0.226611 -0.04306,0.45901 -0.04306,0.688915 0,3.100859 0.846614,5.928847 2.282033,8.008647 1.435419,2.07979 3.522027,3.44457 5.855783,3.44457 0.02867,0.001 0.05744,0.001 0.08611,0 1.758235,-0.19803 3.62017,-1.14813 4.477951,-1.8084 2.808928,-2.10669 4.45561,-2.21457 5.46827,-1.89452 l 0,-1.37783 c -1.01266,-0.32005 -2.659342,-0.21217 -5.46827,1.89452 -0.857781,0.66027 -2.719716,1.61037 -4.477951,1.8084 -0.02867,0.001 -0.05744,0.001 -0.08611,0 -2.333756,0 -4.420364,-1.36478 -5.855783,-3.44457 -1.328991,-1.92561 -2.124053,-4.488658 -2.238976,-7.319732 z" />
  <path
     style="color:#000000;fill:#ffffff;fill-opacity:1;fill-rule:nonzero;stroke:none;stroke-width:2;marker:none;visibility:visible;display:inline;overflow:visible;enable-background:accumulate"
     id="path3955"
     inkscape:connector-curvature="0"
     d="m 83.886191,34.544331 c -0.11573,2.795541 -0.88904,5.340052 -2.19592,7.233614 -1.4159,2.051516 -3.44869,3.358463 -5.72661,3.358463 -0.79446,-0.0135 -1.62511,-0.332049 -2.41121,-0.688915 -0.7861,-0.356867 -1.51681,-0.745498 -1.98063,-0.990316 -0.0298,-0.01185 -0.0587,-0.02633 -0.0861,-0.04306 -2.94568,-2.209261 -4.67458,-2.283702 -5.72662,-1.894518 l 0,1.377832 c 1.05204,-0.389185 2.78094,-0.314744 5.72662,1.894518 0.0274,0.01673 0.0563,0.03121 0.0861,0.04306 0.46382,0.244818 1.19453,0.633449 1.98063,0.990316 0.7861,0.356866 1.61675,0.675413 2.41121,0.688916 2.27792,0 4.31071,-1.306948 5.72661,-3.358464 1.4159,-2.051516 2.23897,-4.848296 2.23897,-7.922529 0,-0.236698 -0.0334,-0.455831 -0.043,-0.688916 z m -0.81809,31.302602 c -0.18555,1.259056 -0.81431,2.787506 -2.19592,4.650181 -0.0114,0.02173 -0.0311,0.06356 -0.0431,0.08611 -0.25891,0.487081 -0.632,1.157009 -0.94726,1.851461 -0.32985,0.726599 -0.59489,1.470883 -0.6028,1.937575 0,0.303607 0.0276,0.609606 0.0861,0.904202 0.0976,-0.433152 0.27722,-0.936463 0.51668,-1.463946 0.31526,-0.694452 0.68835,-1.364379 0.94726,-1.851461 0.012,-0.02256 0.0316,-0.06439 0.0431,-0.08611 1.92764,-2.598834 2.40248,-4.583937 2.19592,-6.028012 z m 12.78799,0 c -0.2338,1.458918 0.24672,3.457784 2.23898,6.114126 0.35061,0.455494 1.17952,2.054826 1.46395,3.358464 0.0588,-0.292027 0.0834,-0.603046 0.0861,-0.904202 -0.001,-0.01185 0.002,-0.03108 0,-0.04306 -0.16526,-1.351812 -1.16088,-3.283442 -1.55006,-3.789036 -1.41864,-1.891526 -2.0645,-3.461631 -2.23898,-4.736295 z" />
  <path
     style="opacity:0.3;color:#000000;fill:#ffffff;fill-opacity:1;fill-rule:nonzero;stroke:none;stroke-width:2;marker:none;visibility:visible;display:inline;overflow:visible;enable-background:accumulate"
     id="path3965"
     inkscape:connector-curvature="0"
     d="m 65.931321,64.339931 0,1.377831 4.52101,0 4.39184,0 6.8461,0 c 0.02,0.0633 0.0268,0.146912 0.0431,0.215286 0.11933,-0.661636 0.0877,-1.17929 -0.0431,-1.593117 l -6.8461,0 -4.39184,0 -4.52101,0 z m 31.25955,0 c -0.1308,0.413827 -0.1624,0.931481 -0.0431,1.593117 0.0163,-0.06837 0.0231,-0.151995 0.0431,-0.215286 l 24.499559,0 0,-1.377831 -24.499559,0 z m -19.16047,10.979592 c -0.0197,0.13995 -0.0407,0.291943 -0.0431,0.430572 0,2.333756 1.36477,4.420364 3.44457,5.855783 2.07981,1.435419 4.90779,2.282033 8.00865,2.282033 3.10086,0 5.9185,-0.84744 8.00864,-2.282033 2.09015,-1.434594 3.487639,-3.519516 3.487639,-5.855783 0.002,-0.02867 0.002,-0.05744 0,-0.08611 -0.0114,-0.101285 -0.0697,-0.199714 -0.0861,-0.301401 -0.33398,1.927798 -1.614599,3.639 -3.401519,4.865467 -2.09014,1.434593 -4.90778,2.282033 -8.00864,2.282033 -3.10086,0 -5.92884,-0.846614 -8.00865,-2.282033 -1.79423,-1.238328 -3.08876,-2.960329 -3.40152,-4.908524 z m -23.595355,9.644818 c -1.772893,0 -3.409142,1.033633 -4.650181,2.841777 -1.241038,1.808145 -2.023689,4.355972 -2.023689,7.190557 0,0.236422 0.03235,0.456613 0.04306,0.688915 0.117598,-2.55144 0.843103,-4.844303 1.980632,-6.501641 1.241039,-1.808144 2.877288,-2.841776 4.650181,-2.841776 0.425722,0.0072 1.175357,0.233265 1.894518,0.559743 0.71916,0.326479 1.399858,0.729219 1.894517,0.990317 3.363216,2.487922 5.75513,2.655287 7.27667,1.894518 0.25035,-0.109635 0.42561,-0.372599 0.43057,-0.645859 l 0,-1.377831 c -0.005,0.27326 -0.18022,0.536224 -0.43057,0.645858 -1.52154,0.76077 -3.913454,0.593409 -7.27667,-1.894518 -0.494659,-0.261097 -1.175357,-0.663837 -1.894517,-0.990316 -0.719161,-0.326478 -1.468796,-0.552535 -1.894518,-0.559744 z" />
  <g
     id="layer3"
     style="display:none"
     transform="translate(0,32)">
    <rect
       width="66"
       height="66"
       rx="12"
       ry="12"
       x="15"
       y="15"
       clip-path="url(#clipPath3613-0)"
       id="rect3171"
       style="opacity:0.5;fill:url(#linearGradient3121);fill-opacity:1;fill-rule:nonzero;stroke:#ffffff;stroke-width:0.5;stroke-linecap:round;stroke-linejoin:miter;stroke-miterlimit:4;stroke-opacity:1;stroke-dasharray:none;stroke-dashoffset:0;display:inline;filter:url(#filter3794)" />
  </g>
  <g
     id="layer4"
     transform="matrix(1.3778312,0,0,1.3778312,-2.3143765,-3.9057707)" />
</svg>
